<svg xmlns="http://www.w3.org/2000/svg" width="14.78" height="17.298" viewBox="0 0 14.78 17.298">
  <g id="premium-badge" transform="translate(-21.93 -1)">
    <g id="Layer_5_21_" transform="translate(21.93 1)">
      <g id="Group_215" data-name="Group 215" transform="translate(0)">
        <path id="Path_997" data-name="Path 997" d="M41.642,14.7l-2.264-3.892c.392-.12.809-.225.983-.525.289-.5-.225-1.317-.09-1.852.139-.55.961-1.027.961-1.586s-.849-1.182-.989-1.729.377-1.354.087-1.852-1.256-.457-1.653-.84-.408-1.357-.9-1.621-1.3.27-1.851.144S34.895,0,34.327,0s-1.493.929-1.637.962c-.55.128-1.356-.406-1.851-.14s-.49,1.228-.9,1.622-1.363.344-1.652.843.225,1.317.09,1.852-.986,1.08-.986,1.7c0,.56.824,1.034.964,1.585.136.535-.377,1.354-.087,1.853a1.426,1.426,0,0,0,.874.49c.042.012.121.059.067.137L27,14.726a.316.316,0,0,0,.283.515l1.528.064a1.216,1.216,0,0,1,.87.5l.815,1.294a.316.316,0,0,0,.588-.011l2.282-3.939c.046-.053.092-.042.114-.024a1.579,1.579,0,0,0,.888.425,1.366,1.366,0,0,0,.809-.422c.021-.018.073-.055.111.022l2.279,3.918a.316.316,0,0,0,.588.01l.813-1.3a1.216,1.216,0,0,1,.869-.506l1.528-.067A.316.316,0,0,0,41.642,14.7Zm-4.791-3.542a5.063,5.063,0,1,1-.1-8.828l.038.021.053.03a5.073,5.073,0,0,1,.01,8.777Z" transform="translate(-26.93)" fill="#fff"/>
        <path id="Path_998" data-name="Path 998" d="M99.71,54.08l-.021-.012a4.269,4.269,0,0,0-4.407,7.31c.049.031.1.061.148.09A4.269,4.269,0,0,0,99.71,54.08Zm.51,3.33-.713.7a1.2,1.2,0,0,0-.307.944l.168.982c.052.3-.129.435-.4.292l-.882-.464a1.2,1.2,0,0,0-.993,0l-.882.464c-.273.144-.454.012-.4-.292l.168-.982a1.2,1.2,0,0,0-.307-.944l-.713-.7c-.221-.215-.152-.428.153-.472l.986-.143a1.2,1.2,0,0,0,.8-.584l.441-.893c.137-.277.36-.277.5,0l.441.893a1.2,1.2,0,0,0,.8.584l.986.143C100.372,56.982,100.441,57.195,100.22,57.41Z" transform="translate(-90.175 -50.99)" fill="#fff"/>
      </g>
    </g>
  </g>
</svg>
