<svg id="round-account-button-with-user-inside_1_" data-name="round-account-button-with-user-inside (1)"
     xmlns="http://www.w3.org/2000/svg" width="20.747" height="20.747" viewBox="0 0 20.747 20.747">
    <g id="account-circle">
        <path id="Path_996" data-name="Path 996"
              d="M10.373,0A10.373,10.373,0,1,0,20.747,10.373,10.4,10.4,0,0,0,10.373,0Zm0,3.112a3.056,3.056,0,0,1,3.112,3.112,3.056,3.056,0,0,1-3.112,3.112A3.056,3.056,0,0,1,7.261,6.224,3.056,3.056,0,0,1,10.373,3.112Zm0,14.73a7.568,7.568,0,0,1-6.224-3.32c0-2.075,4.149-3.216,6.224-3.216S16.6,12.448,16.6,14.523A7.568,7.568,0,0,1,10.373,17.842Z"
              fill="#0f3358"/>
    </g>
</svg>
