<svg xmlns="http://www.w3.org/2000/svg" width="1918" height="868.101" viewBox="0 0 1918 868.101">
  <g id="Group_643" data-name="Group 643" transform="translate(-2)">
    <rect id="charlie-woodward-633022-unsplash" width="1918" height="864" transform="translate(2)" fill="#fff" opacity="0.85"/>
    <g id="mountains" transform="translate(308 674.523)" opacity="0.05">
      <path id="Path_6" data-name="Path 6" d="M1608,193.34C1580.917,171.308,1447.222,70.5,1258.178,60.182,1139.851,53.733,1035.6,97.8,966.283,138.1,877.941,83.611,727.372,11.174,538.866.964,270.293-13.759,51.264,151.1,0,193.34Z" transform="translate(0 0)" fill="#b8b8b8"/>
    </g>
    <g id="city1" transform="translate(96.476 747.416)" opacity="0.47">
      <g id="Group_2" data-name="Group 2" transform="translate(424.383 45.937)">
        <line id="Line_1" data-name="Line 1" y2="74.159" transform="translate(8.004)" fill="none" stroke="#0f3358" stroke-miterlimit="10" stroke-width="1"/>
        <line id="Line_2" data-name="Line 2" y1="8.122" x2="8.122" transform="translate(7.887 5.532)" fill="none" stroke="#0f3358" stroke-miterlimit="10" stroke-width="1"/>
        <line id="Line_3" data-name="Line 3" x1="7.887" y1="7.887" transform="translate(0 18.716)" fill="none" stroke="#0f3358" stroke-miterlimit="10" stroke-width="1"/>
      </g>
      <circle id="Ellipse_1" data-name="Ellipse 1" cx="34.137" cy="34.137" r="34.137" transform="translate(398.251 25.455)" fill="none" stroke="#0f3358" stroke-miterlimit="10" stroke-width="1"/>
      <line id="Line_4" data-name="Line 4" y2="62.388" transform="translate(22.748 57.708)" fill="none" stroke="#0f3358" stroke-miterlimit="10" stroke-width="1"/>
      <line id="Line_5" data-name="Line 5" y1="8.122" x2="8.122" transform="translate(22.63 72.658)" fill="none" stroke="#0f3358" stroke-miterlimit="10" stroke-width="1"/>
      <line id="Line_6" data-name="Line 6" x1="7.887" y1="7.887" transform="translate(14.743 62.299)" fill="none" stroke="#0f3358" stroke-miterlimit="10" stroke-width="1"/>
      <circle id="Ellipse_2" data-name="Ellipse 2" cx="22.248" cy="22.248" r="22.248" transform="translate(0.5 49.115)" fill="none" stroke="#0f3358" stroke-miterlimit="10" stroke-width="1"/>
      <g id="Group_4" data-name="Group 4" transform="translate(279.95 0.5)">
        <path id="Path_7" data-name="Path 7" d="M237.9,120.684V.5h81.222V120.684" transform="translate(-237.9 -0.5)" fill="none" stroke="#0f3358" stroke-miterlimit="10" stroke-width="1"/>
        <g id="Group_3" data-name="Group 3" transform="translate(9.77 9.417)">
          <rect id="Rectangle_10" data-name="Rectangle 10" width="16.009" height="32.842" fill="none" stroke="#0f3358" stroke-miterlimit="10" stroke-width="1"/>
          <rect id="Rectangle_11" data-name="Rectangle 11" width="16.009" height="32.842" transform="translate(22.836)" fill="none" stroke="#0f3358" stroke-miterlimit="10" stroke-width="1"/>
          <rect id="Rectangle_12" data-name="Rectangle 12" width="16.009" height="32.842" transform="translate(45.672)" fill="none" stroke="#0f3358" stroke-miterlimit="10" stroke-width="1"/>
          <rect id="Rectangle_13" data-name="Rectangle 13" width="16.009" height="16.48" fill="none" stroke="#0f3358" stroke-miterlimit="10" stroke-width="1"/>
          <rect id="Rectangle_14" data-name="Rectangle 14" width="16.009" height="16.48" transform="translate(22.836)" fill="none" stroke="#0f3358" stroke-miterlimit="10" stroke-width="1"/>
          <rect id="Rectangle_15" data-name="Rectangle 15" width="16.009" height="16.48" transform="translate(45.672)" fill="none" stroke="#0f3358" stroke-miterlimit="10" stroke-width="1"/>
          <rect id="Rectangle_16" data-name="Rectangle 16" width="16.009" height="32.842" transform="translate(0 40.022)" fill="none" stroke="#0f3358" stroke-miterlimit="10" stroke-width="1"/>
          <rect id="Rectangle_17" data-name="Rectangle 17" width="16.009" height="32.842" transform="translate(22.836 40.022)" fill="none" stroke="#0f3358" stroke-miterlimit="10" stroke-width="1"/>
          <rect id="Rectangle_18" data-name="Rectangle 18" width="16.009" height="32.842" transform="translate(45.672 40.022)" fill="none" stroke="#0f3358" stroke-miterlimit="10" stroke-width="1"/>
          <rect id="Rectangle_19" data-name="Rectangle 19" width="16.009" height="16.48" transform="translate(0 40.022)" fill="none" stroke="#0f3358" stroke-miterlimit="10" stroke-width="1"/>
          <rect id="Rectangle_20" data-name="Rectangle 20" width="16.009" height="16.48" transform="translate(22.836 40.022)" fill="none" stroke="#0f3358" stroke-miterlimit="10" stroke-width="1"/>
          <rect id="Rectangle_21" data-name="Rectangle 21" width="16.009" height="16.48" transform="translate(45.672 40.022)" fill="none" stroke="#0f3358" stroke-miterlimit="10" stroke-width="1"/>
        </g>
        <path id="Path_8" data-name="Path 8" d="M293.526,106.213V82.2H256.8v24.013" transform="translate(-234.552 13.971)" fill="none" stroke="#0f3358" stroke-miterlimit="10" stroke-width="1"/>
        <line id="Line_7" data-name="Line 7" y2="23.543" transform="translate(41.788 96.053)" fill="none" stroke="#0f3358" stroke-miterlimit="10" stroke-width="1"/>
      </g>
      <g id="Group_7" data-name="Group 7" transform="translate(152.231 45.348)">
        <line id="Line_8" data-name="Line 8" y1="58.856" transform="translate(8.004 16.48)" fill="none" stroke="#0f3358" stroke-miterlimit="10" stroke-width="1"/>
        <g id="Group_6" data-name="Group 6">
          <line id="Line_9" data-name="Line 9" y2="58.856" transform="translate(87.107 16.48)" fill="none" stroke="#0f3358" stroke-miterlimit="10" stroke-width="1"/>
          <g id="Group_5" data-name="Group 5" transform="translate(20.953 26.368)">
            <rect id="Rectangle_22" data-name="Rectangle 22" width="6.71" height="6.71" fill="none" stroke="#0f3358" stroke-miterlimit="10" stroke-width="1"/>
            <rect id="Rectangle_23" data-name="Rectangle 23" width="6.71" height="6.71" transform="translate(15.538)" fill="none" stroke="#0f3358" stroke-miterlimit="10" stroke-width="1"/>
            <rect id="Rectangle_24" data-name="Rectangle 24" width="6.71" height="6.71" transform="translate(30.958)" fill="none" stroke="#0f3358" stroke-miterlimit="10" stroke-width="1"/>
            <rect id="Rectangle_25" data-name="Rectangle 25" width="6.71" height="6.71" transform="translate(46.379)" fill="none" stroke="#0f3358" stroke-miterlimit="10" stroke-width="1"/>
            <rect id="Rectangle_26" data-name="Rectangle 26" width="6.71" height="6.71" transform="translate(0 15.42)" fill="none" stroke="#0f3358" stroke-miterlimit="10" stroke-width="1"/>
            <rect id="Rectangle_27" data-name="Rectangle 27" width="6.71" height="6.71" transform="translate(15.538 15.42)" fill="none" stroke="#0f3358" stroke-miterlimit="10" stroke-width="1"/>
            <rect id="Rectangle_28" data-name="Rectangle 28" width="6.71" height="6.71" transform="translate(30.958 15.42)" fill="none" stroke="#0f3358" stroke-miterlimit="10" stroke-width="1"/>
            <rect id="Rectangle_29" data-name="Rectangle 29" width="6.71" height="6.71" transform="translate(46.379 15.42)" fill="none" stroke="#0f3358" stroke-miterlimit="10" stroke-width="1"/>
            <rect id="Rectangle_30" data-name="Rectangle 30" width="6.71" height="6.71" transform="translate(0 30.841)" fill="none" stroke="#0f3358" stroke-miterlimit="10" stroke-width="1"/>
            <rect id="Rectangle_31" data-name="Rectangle 31" width="6.71" height="6.71" transform="translate(15.538 30.841)" fill="none" stroke="#0f3358" stroke-miterlimit="10" stroke-width="1"/>
            <rect id="Rectangle_32" data-name="Rectangle 32" width="6.71" height="6.71" transform="translate(30.958 30.841)" fill="none" stroke="#0f3358" stroke-miterlimit="10" stroke-width="1"/>
            <rect id="Rectangle_33" data-name="Rectangle 33" width="6.71" height="6.71" transform="translate(46.379 30.841)" fill="none" stroke="#0f3358" stroke-miterlimit="10" stroke-width="1"/>
          </g>
          <path id="Path_9" data-name="Path 9" d="M145.762,38.6,129.4,55.08h94.994L208.15,38.6Z" transform="translate(-129.4 -38.6)" fill="none" stroke="#0f3358" stroke-miterlimit="10" stroke-width="1"/>
        </g>
      </g>
      <g id="Group_9" data-name="Group 9" transform="translate(74.423 18.039)">
        <g id="Group_8" data-name="Group 8" transform="translate(14.126 27.898)">
          <line id="Line_10" data-name="Line 10" x2="0.118" y2="74.747" transform="translate(7.18)" fill="none" stroke="#0f3358" stroke-miterlimit="10" stroke-width="1"/>
          <line id="Line_11" data-name="Line 11" y1="7.651" x2="7.651" transform="translate(7.18 5.532)" fill="none" stroke="#0f3358" stroke-miterlimit="10" stroke-width="1"/>
          <line id="Line_12" data-name="Line 12" x1="7.18" y1="7.063" transform="translate(0 18.716)" fill="none" stroke="#0f3358" stroke-miterlimit="10" stroke-width="1"/>
        </g>
        <path id="Path_10" data-name="Path 10" d="M90.962,95.327H78.72A15.473,15.473,0,0,1,63.3,79.906V30.82A15.473,15.473,0,0,1,78.72,15.4H90.962a15.473,15.473,0,0,1,15.42,15.42V79.906A15.473,15.473,0,0,1,90.962,95.327Z" transform="translate(-63.3 -15.4)" fill="none" stroke="#0f3358" stroke-miterlimit="10" stroke-width="1"/>
      </g>
    </g>
    <g id="city1-2" data-name="city1" transform="translate(1316.476 743.416)" opacity="0.44">
      <line id="Line_4-2" data-name="Line 4" y2="62.388" transform="translate(22.748 57.708)" fill="none" stroke="#0f3358" stroke-miterlimit="10" stroke-width="1"/>
      <line id="Line_5-2" data-name="Line 5" y1="8.122" x2="8.122" transform="translate(22.63 72.658)" fill="none" stroke="#0f3358" stroke-miterlimit="10" stroke-width="1"/>
      <line id="Line_6-2" data-name="Line 6" x1="7.887" y1="7.887" transform="translate(14.743 62.299)" fill="none" stroke="#0f3358" stroke-miterlimit="10" stroke-width="1"/>
      <circle id="Ellipse_2-2" data-name="Ellipse 2" cx="22.248" cy="22.248" r="22.248" transform="translate(0.5 49.115)" fill="none" stroke="#0f3358" stroke-miterlimit="10" stroke-width="1"/>
      <g id="Group_7-2" data-name="Group 7" transform="translate(152.231 45.348)">
        <line id="Line_8-2" data-name="Line 8" y1="58.856" transform="translate(8.004 16.48)" fill="none" stroke="#0f3358" stroke-miterlimit="10" stroke-width="1"/>
        <g id="Group_6-2" data-name="Group 6">
          <line id="Line_9-2" data-name="Line 9" y2="58.856" transform="translate(87.107 16.48)" fill="none" stroke="#0f3358" stroke-miterlimit="10" stroke-width="1"/>
          <g id="Group_5-2" data-name="Group 5" transform="translate(20.953 26.368)">
            <rect id="Rectangle_22-2" data-name="Rectangle 22" width="6.71" height="6.71" fill="none" stroke="#0f3358" stroke-miterlimit="10" stroke-width="1"/>
            <rect id="Rectangle_23-2" data-name="Rectangle 23" width="6.71" height="6.71" transform="translate(15.538)" fill="none" stroke="#0f3358" stroke-miterlimit="10" stroke-width="1"/>
            <rect id="Rectangle_24-2" data-name="Rectangle 24" width="6.71" height="6.71" transform="translate(30.958)" fill="none" stroke="#0f3358" stroke-miterlimit="10" stroke-width="1"/>
            <rect id="Rectangle_25-2" data-name="Rectangle 25" width="6.71" height="6.71" transform="translate(46.379)" fill="none" stroke="#0f3358" stroke-miterlimit="10" stroke-width="1"/>
            <rect id="Rectangle_26-2" data-name="Rectangle 26" width="6.71" height="6.71" transform="translate(0 15.42)" fill="none" stroke="#0f3358" stroke-miterlimit="10" stroke-width="1"/>
            <rect id="Rectangle_27-2" data-name="Rectangle 27" width="6.71" height="6.71" transform="translate(15.538 15.42)" fill="none" stroke="#0f3358" stroke-miterlimit="10" stroke-width="1"/>
            <rect id="Rectangle_28-2" data-name="Rectangle 28" width="6.71" height="6.71" transform="translate(30.958 15.42)" fill="none" stroke="#0f3358" stroke-miterlimit="10" stroke-width="1"/>
            <rect id="Rectangle_29-2" data-name="Rectangle 29" width="6.71" height="6.71" transform="translate(46.379 15.42)" fill="none" stroke="#0f3358" stroke-miterlimit="10" stroke-width="1"/>
            <rect id="Rectangle_30-2" data-name="Rectangle 30" width="6.71" height="6.71" transform="translate(0 30.841)" fill="none" stroke="#0f3358" stroke-miterlimit="10" stroke-width="1"/>
            <rect id="Rectangle_31-2" data-name="Rectangle 31" width="6.71" height="6.71" transform="translate(15.538 30.841)" fill="none" stroke="#0f3358" stroke-miterlimit="10" stroke-width="1"/>
            <rect id="Rectangle_32-2" data-name="Rectangle 32" width="6.71" height="6.71" transform="translate(30.958 30.841)" fill="none" stroke="#0f3358" stroke-miterlimit="10" stroke-width="1"/>
            <rect id="Rectangle_33-2" data-name="Rectangle 33" width="6.71" height="6.71" transform="translate(46.379 30.841)" fill="none" stroke="#0f3358" stroke-miterlimit="10" stroke-width="1"/>
          </g>
          <path id="Path_9-2" data-name="Path 9" d="M145.762,38.6,129.4,55.08h94.994L208.15,38.6Z" transform="translate(-129.4 -38.6)" fill="none" stroke="#0f3358" stroke-miterlimit="10" stroke-width="1"/>
        </g>
      </g>
      <g id="Group_9-2" data-name="Group 9" transform="translate(74.423 18.039)">
        <g id="Group_8-2" data-name="Group 8" transform="translate(14.126 27.898)">
          <line id="Line_10-2" data-name="Line 10" x2="0.118" y2="74.747" transform="translate(7.18)" fill="none" stroke="#0f3358" stroke-miterlimit="10" stroke-width="1"/>
          <line id="Line_11-2" data-name="Line 11" y1="7.651" x2="7.651" transform="translate(7.18 5.532)" fill="none" stroke="#0f3358" stroke-miterlimit="10" stroke-width="1"/>
          <line id="Line_12-2" data-name="Line 12" x1="7.18" y1="7.063" transform="translate(0 18.716)" fill="none" stroke="#0f3358" stroke-miterlimit="10" stroke-width="1"/>
        </g>
        <path id="Path_10-2" data-name="Path 10" d="M90.962,95.327H78.72A15.473,15.473,0,0,1,63.3,79.906V30.82A15.473,15.473,0,0,1,78.72,15.4H90.962a15.473,15.473,0,0,1,15.42,15.42V79.906A15.473,15.473,0,0,1,90.962,95.327Z" transform="translate(-63.3 -15.4)" fill="none" stroke="#0f3358" stroke-miterlimit="10" stroke-width="1"/>
      </g>
    </g>
    <path id="cloud1" d="M122.983,39.671a22.207,22.207,0,0,0-6.328.979A21.315,21.315,0,0,0,84.416,22.42a35.232,35.232,0,0,0-67.645,9.491,25.69,25.69,0,0,0,8.286,49.566h97.927a20.9,20.9,0,1,0,0-41.807Z" transform="translate(68.5 238.191)" fill="none" stroke="#0f3358" stroke-miterlimit="10" stroke-width="1" opacity="0.33"/>
    <path id="cloud1-2" data-name="cloud1" d="M67.076,21.791a12.071,12.071,0,0,0-3.439.532,11.586,11.586,0,0,0-17.524-9.909A19.15,19.15,0,0,0,9.344,17.574a13.964,13.964,0,0,0,4.5,26.942H67.076a11.362,11.362,0,1,0,0-22.724Z" transform="translate(1701.5 542.191)" fill="none" stroke="#0f3358" stroke-miterlimit="10" stroke-width="1" opacity="0.33"/>
    <path id="cloud1-3" data-name="cloud1" d="M29.52,9.781a5.262,5.262,0,0,0-1.5.232,5.05,5.05,0,0,0-7.639-4.319A8.348,8.348,0,0,0,4.355,7.943,6.087,6.087,0,0,0,6.318,19.686h23.2a4.953,4.953,0,1,0,0-9.906Z" transform="translate(1439.5 219.021)" fill="none" stroke="#0f3358" stroke-miterlimit="10" stroke-width="1" opacity="0.33"/>
    <text id="e.g._Neapol" data-name="e.g. Neapol" transform="translate(509 471)" fill="#071f37" font-size="20" font-family="OpenSans-Semibold, Open Sans" font-weight="600" opacity="0.95"><tspan x="-53.94" y="0">e.g. Neapol</tspan></text>
  </g>
</svg>
