<svg id="google-plus" xmlns="http://www.w3.org/2000/svg" width="25.244" height="16.152" viewBox="0 0 25.244 16.152">
    <path id="Path_62" data-name="Path 62"
          d="M8.857,92.262H12.8a5.014,5.014,0,1,1-1.361-5.376.543.543,0,0,0,.739,0l1.449-1.363a.542.542,0,0,0,0-.787,8.046,8.046,0,0,0-5.392-2.211,8.076,8.076,0,1,0,7.9,8.529c.006-.053.01-1.854.01-1.854H8.857a.541.541,0,0,0-.541.541V91.72A.541.541,0,0,0,8.857,92.262Z"
          transform="translate(0 -82.519)" fill="#0f3358"/>
    <path id="Path_63" data-name="Path 63"
          d="M328.851,165.62v-1.938a.474.474,0,0,0-.474-.474h-1.631a.474.474,0,0,0-.474.474v1.938h-1.938a.474.474,0,0,0-.474.474v1.631a.474.474,0,0,0,.474.474h1.938v1.938a.474.474,0,0,0,.474.474h1.631a.474.474,0,0,0,.474-.474V168.2h1.938a.474.474,0,0,0,.474-.474v-1.631a.474.474,0,0,0-.474-.474Z"
          transform="translate(-306.019 -158.763)" fill="#0f3358"/>
</svg>
