<svg id="instagram" xmlns="http://www.w3.org/2000/svg" width="16.15" height="16.15" viewBox="0 0 16.15 16.15">
    <g id="Group_13" data-name="Group 13">
        <g id="Group_12" data-name="Group 12">
            <path id="Path_64" data-name="Path 64"
                  d="M11.786,0H4.364A4.369,4.369,0,0,0,0,4.364v7.423A4.369,4.369,0,0,0,4.364,16.15h7.423a4.369,4.369,0,0,0,4.364-4.364V4.364A4.369,4.369,0,0,0,11.786,0Zm3.059,11.786a3.062,3.062,0,0,1-3.059,3.059H4.364A3.062,3.062,0,0,1,1.3,11.786V4.364A3.062,3.062,0,0,1,4.364,1.3h7.423a3.062,3.062,0,0,1,3.059,3.059Z"
                  fill="#0f3358"/>
        </g>
    </g>
    <g id="Group_15" data-name="Group 15" transform="translate(4.485 4.421)">
        <g id="Group_14" data-name="Group 14">
            <path id="Path_65" data-name="Path 65"
                  d="M149.389,143.261a3.621,3.621,0,1,0-3.59,4.153,3.671,3.671,0,0,0,.539-.04,3.621,3.621,0,0,0,3.051-4.113Zm-3.242,2.823a2.317,2.317,0,1,1,1.952-2.631A2.3,2.3,0,0,1,146.146,146.084Z"
                  transform="translate(-142.185 -140.171)" fill="#0f3358"/>
        </g>
    </g>
    <g id="Group_17" data-name="Group 17" transform="translate(11.505 3.34)">
        <g id="Group_16" data-name="Group 16">
            <path id="Path_66" data-name="Path 66"
                  d="M365.855,106.084a.652.652,0,1,0,.191.461A.657.657,0,0,0,365.855,106.084Z"
                  transform="translate(-364.741 -105.893)" fill="#0f3358"/>
        </g>
    </g>
</svg>
