<svg id="twitter-logo-silhouette" xmlns="http://www.w3.org/2000/svg" width="19.841" height="16.116" viewBox="0 0 19.841 16.116">
  <g id="Group_11" data-name="Group 11" transform="translate(0 0)">
    <path id="Path_61" data-name="Path 61" d="M19.842,59.348a8.128,8.128,0,0,1-2.337.641,4.087,4.087,0,0,0,1.789-2.25,8.205,8.205,0,0,1-2.586.988,4.073,4.073,0,0,0-6.936,3.711,11.555,11.555,0,0,1-8.389-4.253,4.075,4.075,0,0,0,1.26,5.433A4.07,4.07,0,0,1,.8,63.107v.051a4.074,4.074,0,0,0,3.264,3.991,4.123,4.123,0,0,1-1.072.143,3.906,3.906,0,0,1-.766-.076,4.072,4.072,0,0,0,3.8,2.827A8.166,8.166,0,0,1,.972,71.782,8.651,8.651,0,0,1,0,71.726,11.505,11.505,0,0,0,6.24,73.557a11.5,11.5,0,0,0,11.58-11.58l-.014-.527A8.128,8.128,0,0,0,19.842,59.348Z" transform="translate(-0.001 -57.441)" fill="#0f3358"/>
  </g>
</svg>
