<svg id="like" xmlns="http://www.w3.org/2000/svg" width="22.753" height="20.101" viewBox="0 0 22.753 20.101">
  <g id="Group_10" data-name="Group 10" transform="translate(0 0)">
    <path id="Path_12" data-name="Path 12" d="M21.093,31.811a5.731,5.731,0,0,0-9.15.658,8.724,8.724,0,0,0-.566.918,8.716,8.716,0,0,0-.566-.918,5.731,5.731,0,0,0-9.15-.658A6.9,6.9,0,0,0,0,36.391a8.446,8.446,0,0,0,2.326,5.542,51.787,51.787,0,0,0,5.822,5.439c.88.75,1.791,1.526,2.76,2.374l.029.026a.667.667,0,0,0,.878,0l.029-.026c.969-.848,1.88-1.624,2.76-2.374a51.779,51.779,0,0,0,5.822-5.439,8.446,8.446,0,0,0,2.326-5.542A6.9,6.9,0,0,0,21.093,31.811ZM13.74,46.358c-.759.647-1.54,1.312-2.364,2.028-.824-.716-1.6-1.382-2.364-2.029-4.624-3.941-7.679-6.544-7.679-9.966a5.566,5.566,0,0,1,1.327-3.7,4.45,4.45,0,0,1,3.384-1.523A4.494,4.494,0,0,1,9.722,33.24a7.9,7.9,0,0,1,1.02,2.029.667.667,0,0,0,1.268,0,7.9,7.9,0,0,1,1.02-2.029,4.4,4.4,0,0,1,7.062-.548,5.566,5.566,0,0,1,1.327,3.7C21.42,39.814,18.365,42.417,13.74,46.358Z" transform="translate(0 -29.836)" fill="#0f3358"/>
  </g>
</svg>
