<svg xmlns="http://www.w3.org/2000/svg" width="16.405" height="15.095" viewBox="0 0 16.405 15.095">
    <g id="house-scale" transform="translate(0 -19.761)">
        <path id="Path_71" data-name="Path 71"
              d="M82.105,100.848,75.8,96.2a.809.809,0,0,0-.964,0l-6.222,4.647a.808.808,0,1,0,.968,1.3l.834-.623V107.8a.809.809,0,0,0,.809.809H79.42a.809.809,0,0,0,.809-.809v-6.327l.917.676a.808.808,0,0,0,.96-1.3Zm-3.494-.295v6.438H72.037v-6.438a.8.8,0,0,0-.032-.214l3.322-2.481,3.325,2.452A.8.8,0,0,0,78.611,100.554Z"
              transform="translate(-66.029 -73.753)" fill="#a7a7a7"/>
        <path id="Path_72" data-name="Path 72"
              d="M104.577,22.087a.4.4,0,0,0,.4-.4V20.165a.4.4,0,0,0-.4-.4H93.265a.4.4,0,0,0-.4.4v1.517a.4.4,0,1,0,.809,0V20.57h1.042v.489a.27.27,0,0,0,.539,0V20.57h1.021v.489a.27.27,0,0,0,.539,0V20.57h1.021v.489a.27.27,0,0,0,.539,0V20.57h1.021v.489a.27.27,0,0,0,.539,0V20.57h1.021v.489a.27.27,0,1,0,.539,0V20.57h1.021v.489a.27.27,0,1,0,.539,0V20.57h1.123v1.113A.4.4,0,0,0,104.577,22.087Z"
              transform="translate(-89.782)" fill="#a7a7a7"/>
        <path id="Path_73" data-name="Path 73"
              d="M2.326,118.422a.4.4,0,0,0-.4-.4H.809v-1.042H1.3a.27.27,0,1,0,0-.539H.809v-1.021H1.3a.27.27,0,0,0,0-.539H.809v-1.021H1.3a.27.27,0,1,0,0-.539H.809V112.3H1.3a.27.27,0,0,0,0-.539H.809v-1.021H1.3a.27.27,0,1,0,0-.539H.809v-1.021H1.3a.27.27,0,0,0,0-.539H.809v-1.123H1.922a.4.4,0,1,0,0-.809H.4a.4.4,0,0,0-.4.4v11.312a.4.4,0,0,0,.4.4H1.922A.4.4,0,0,0,2.326,118.422Z"
              transform="translate(0 -84.062)" fill="#a7a7a7"/>
    </g>
</svg>
