<svg xmlns="http://www.w3.org/2000/svg" width="19.08" height="16.856" viewBox="0 0 19.08 16.856">
    <g id="like" transform="translate(-22 -36.836)">
        <g id="Group_10" data-name="Group 10" transform="translate(22 36.836)">
            <path id="Path_12" data-name="Path 12"
                  d="M17.688,31.492a4.806,4.806,0,0,0-7.673.552,7.315,7.315,0,0,0-.475.77,7.309,7.309,0,0,0-.475-.77,4.806,4.806,0,0,0-7.673-.552A5.783,5.783,0,0,0,0,35.333,7.082,7.082,0,0,0,1.951,39.98a43.428,43.428,0,0,0,4.882,4.561c.738.629,1.5,1.28,2.315,1.991l.024.021a.559.559,0,0,0,.736,0l.024-.021c.813-.711,1.576-1.362,2.315-1.991a43.421,43.421,0,0,0,4.882-4.561,7.082,7.082,0,0,0,1.951-4.647A5.783,5.783,0,0,0,17.688,31.492Zm-6.166,12.2c-.636.542-1.292,1.1-1.982,1.7-.691-.6-1.346-1.159-1.982-1.7-3.878-3.3-6.44-5.488-6.44-8.357a4.668,4.668,0,0,1,1.113-3.1,3.731,3.731,0,0,1,2.837-1.277A3.769,3.769,0,0,1,8.153,32.69a6.627,6.627,0,0,1,.856,1.7.559.559,0,0,0,1.063,0,6.628,6.628,0,0,1,.856-1.7,3.689,3.689,0,0,1,5.922-.459,4.667,4.667,0,0,1,1.113,3.1C17.962,38.2,15.4,40.386,11.522,43.691Z"
                  transform="translate(0 -29.836)" fill="#fff"/>
        </g>
    </g>
</svg>
