<svg xmlns="http://www.w3.org/2000/svg" width="17.702" height="16.856" viewBox="0 0 17.702 16.856">
  <g id="star" transform="translate(0 -11.714)">
    <path id="Path_1732" data-name="Path 1732" d="M16.357,17.071l-4.318-.31a.231.231,0,0,1-.2-.148l-1.645-4a1.447,1.447,0,0,0-2.677,0L5.867,16.62a.242.242,0,0,1-.2.148l-4.311.31a1.425,1.425,0,0,0-1.273.978A1.414,1.414,0,0,0,.51,19.617l3.337,2.756a.239.239,0,0,1,.079.238L2.909,26.774A1.407,1.407,0,0,0,3.136,28a1.439,1.439,0,0,0,1.136.566,1.371,1.371,0,0,0,.761-.231l3.647-2.269a.238.238,0,0,1,.249,0l3.683,2.262a1.379,1.379,0,0,0,.768.238,1.415,1.415,0,0,0,1.093-.534,1.462,1.462,0,0,0,.278-1.248l-1.021-4.174a.243.243,0,0,1,.079-.242L17.2,19.61a1.448,1.448,0,0,0-.84-2.539Zm.278,1.858-3.38,2.76a1.124,1.124,0,0,0-.379,1.136L13.9,26.99a.57.57,0,0,1-.108.494.531.531,0,0,1-.4.206.5.5,0,0,1-.289-.1L9.4,25.32a1.123,1.123,0,0,0-.588-.166,1.106,1.106,0,0,0-.592.17L4.558,27.6a.536.536,0,0,1-.714-.13A.512.512,0,0,1,3.768,27l1.021-4.177a1.127,1.127,0,0,0-.375-1.129L1.084,18.939a.56.56,0,0,1,.332-.981l4.318-.31a1.118,1.118,0,0,0,.956-.693l1.648-4.008a.561.561,0,0,1,1.039,0l1.648,4.008a1.118,1.118,0,0,0,.956.693l4.325.314a.543.543,0,0,1,.487.379A.556.556,0,0,1,16.635,18.928Z" transform="translate(0 0)" fill="#fff"/>
  </g>
</svg>
